<svg aria-hidden="true" style="position: absolute; width: 0; height: 0; overflow: hidden;" version="1.1" xmlns="http://www.w3.org/2000/svg" xmlns:xlink="http://www.w3.org/1999/xlink">
<defs>
<symbol id="icon-top-leaves" viewBox="0 0 40 32">
<path d="M36.457 17.008c-0.505-1.542-1.691-2.749-2.923-3.855-2.397-2.153-3.687-3.484-4.541-6.633-0.503-1.852-1.014-3.815-2.608-5.158-1.16-0.979-3.158-1.801-4.709-1.1-2.387 1.304-3.029 3.979-2.788 6.375 0.298 2.969 1.814 4.8 4.727 5.894 1.641 0.616 2.732 1.429 3.623 2.845 0.712 1.132 1.128 2.551 2.023 3.577 1.339 1.535 3.014 2.217 5.079 1.962-1.934-3.256-4.194-6.542-6.919-9.284-0.255-0.276-1.76-1.33-1.456-1.8 0.334-0.517 1.879 1.426 1.868 1.414 0.792 0.832 1.525 1.716 2.245 2.608-0.002 0.001-0.004 0.001-0.006 0.002 0.741 0.916 1.476 1.845 2.197 2.786 0.292 0.398 0.575 0.801 0.847 1.214 0.399 0.606 1.032 2.327 1.684 2.7 0.14 0.080 0.269 0.124 0.389 0.143 0.445 0.667 0.879 1.339 1.291 2.020 1.076 1.777 1.999 3.653 2.423 5.659 0.124 0.586 0.036 2.776 0.473 3.198 0.799 0.773 0.565-0.716 0.517-1.165-0.397-3.721-1.857-6.891-3.977-10.019 0.651-0.778 0.745-2.759 0.541-3.384z"></path>
<path d="M9.105 18.806c0.842-0.908 2.866-1.062 4.104-1.001 1.532 0.075 3.105 0.416 4.562 0.829 2.4 0.679 4.733 1.919 6.847 3.119 0.255 0.145 3.393 1.872 3.116 2.175-0.275 0.3-3.357-1.751-4.043-2.105-1.465-0.755-2.809-1.647-4.425-2.146-1.672-0.516-3.441-0.721-5.2-0.706-0.226 0.002-0.962-0.142-0.978 0.163-0.016 0.299 1.203 0.143 1.418 0.145 0.887 0.007 1.78 0.084 2.655 0.225 1.639 0.264 3.18 0.794 4.583 1.609-0.392 0.833-1.331 1.217-2.315 1.009-0.851-0.18-1.681-0.625-2.514-0.753-0.574-0.088-1.149-0.036-1.705 0.112-1.468 0.39-2.315 1.19-3.93 0.634-1.265-0.436-3.382-2.003-2.173-3.308z"></path>
<path d="M5.484 4.181c-1.869-0.125-3.957 1.24-4.859 2.661-0.727 1.145-0.604 2.649-0.155 3.866 0.301 0.815 0.957 1.976 2.051 1.987 1.369 0.014 1.435-1.517 1.462-2.413 0.035-1.19 0.201-2.227 1.238-3.039 0.128-0.1 0.262-0.194 0.396-0.288 0.119-0.083 0.238-0.166 0.353-0.254 0.018-0.014 0.037-0.028 0.055-0.042 0.367-0.279 0.751-0.572 0.798-1.031 0.068-0.666-0.347-0.786-0.981-0.662-0.021 0.004-0.076 0.023-0.152 0.049-0.324 0.111-1.015 0.348-0.884 0.065 0.049-0.107 0.229-0.191 0.456-0.255 0.587-0.058 1.287-0.125 1.489-0.085 2.172 0.431 3.018 3.155 3.243 4.886 0.026 0.196 0.046 0.393 0.064 0.589h0.398c-0.028-0.462-0.064-0.924-0.15-1.382-0.32-1.714-1.321-4.232-3.517-4.51-0.081-0.010-0.379-0.012-0.74 0.007-0.171-0.087-0.363-0.139-0.565-0.151z"></path>
</symbol>
<symbol id="icon-tel" viewBox="0 0 32 32">
<path d="M26.332 6.267l-3.347-3.344c-0.409-0.409-0.955-0.638-1.534-0.638s-1.125 0.226-1.534 0.638l-3.605 3.598c-0.409 0.409-0.638 0.958-0.638 1.537 0 0.581 0.226 1.125 0.638 1.537l2.816 2.819c-0.642 1.495-1.563 2.852-2.715 4-1.153 1.16-2.502 2.074-3.998 2.721l-2.816-2.819c-0.409-0.408-0.955-0.638-1.534-0.638-0.285-0.001-0.568 0.055-0.831 0.164s-0.502 0.271-0.703 0.473l-3.608 3.598c-0.409 0.408-0.638 0.958-0.638 1.537 0 0.581 0.226 1.125 0.638 1.537l3.344 3.344c0.698 0.698 1.659 1.097 2.646 1.097 0.204 0 0.402-0.016 0.603-0.050 4.161-0.685 8.291-2.9 11.625-6.232 3.331-3.337 5.544-7.466 6.235-11.63 0.198-1.182-0.198-2.398-1.047-3.249zM25.15 9.143c-0.613 3.705-2.605 7.401-5.607 10.402s-6.694 4.993-10.4 5.606c-0.465 0.078-0.943-0.078-1.282-0.415l-3.284-3.284 3.482-3.485 3.793 3.799 0.679-0.251c2.058-0.757 3.928-1.952 5.478-3.503s2.745-3.42 3.501-5.479l0.251-0.679-3.797-3.793 3.482-3.485 3.284 3.284c0.339 0.339 0.497 0.817 0.418 1.282z"></path>
</symbol>
<symbol id="icon-plant-right" viewBox="0 0 22 32">
<path d="M2.038 9.338c1.181-0.056 2.643 0.575 2.768 1.75 0.092 0.854 0.063 1.705 0.205 2.557 0.113 0.681 0.353 1.335 0.68 1.956 0.314 0.597 0.966 1.105 1.136 1.742 0.108 0.406 0.048 0.978-0.101 1.375-0.181 0.483-0.085 0.445 0.276 0.85 0.708 0.794 1.345 1.609 1.795 2.558 0.649 1.367 1.075 2.964 0.834 4.46-0.031 0.19-0.067 0.871-0.353 0.919-0.319 0.053-0.17-0.336-0.153-0.462 0.109-0.803 0.205-1.506 0.074-2.322-0.506-3.149-2.974-5.223-4.582-7.896-0.088-0.138-0.275-0.466-0.405-0.683-0.205-0.342-0.411-0.992-0.688-1.246-0.522-0.477-0.042 0.482 0.060 0.666 0.129 0.232 0.27 0.478 0.402 0.681 0.603 0.942 1.276 1.969 1.899 2.94-2.694 0.562-4.591-2.402-5.314-4.35-0.596-1.605-1.308-5.358 1.467-5.495z"></path>
<path d="M17.872 6.357c-1.975 0.143-3.243 1.336-3.833 3.004-0.318 0.899-0.355 1.822-0.531 2.746-0.266 1.389-0.838 2.443-1.956 3.433-0.346 0.307-0.602 0.621-0.783 0.958-0.36 0.336-0.674 0.717-0.904 1.182-0.294 0.594-0.377 1.307-0.038 1.899 0.091 0.159 0.319 0.479 0.555 0.624-0.884 1.723-1.37 3.61-1.316 5.494 0.033 1.138 0.094 2.276 0.165 3.412 0.019 0.305 0.128 0.809 0.291 0.297 0.149-0.468-0.038-1.203-0.055-1.691-0.084-2.382-0.156-4.547 0.915-6.772 0.112-0.233 0.232-0.465 0.356-0.694 0.007-0.004 0.014-0.009 0.021-0.013 0.005 0.003 0.009 0.007 0.014 0.010 0.008-0.013 0.019-0.028 0.031-0.046 0.036-0.034 0.067-0.076 0.096-0.123 0.095-0.12 0.203-0.262 0.203-0.34 0-0.001-0-0.002-0-0.002 0.663-0.991 1.423-1.927 2.199-2.845-0.006 0.007 0.842-1.049 0.711-0.465-0.063 0.281-0.687 0.817-0.938 1.115-0.557 0.663-1.211 1.503-1.755 2.316-0.073 0.038-0.176 0.227-0.251 0.368-0.041 0.071-0.080 0.143-0.118 0.206 1.926 0.582 3.424-0.591 4.446-1.955 0.001-0.002 0.002-0.003 0.003-0.005 0.311-0.377 0.629-0.751 1.027-1.049 0.664-0.497 1.375-0.585 2.157-0.83 2.134-0.667 3.042-3.198 3.33-5.076 0.325-2.118-1.265-5.367-4.042-5.158z"></path>
<path d="M13.971 0.425c-2.027 1.93-3.006 4.607-3.782 7.124-0.866 2.811-1.438 5.665-1.46 8.588-0.014 1.92-0.071 3.852 0.051 5.77 0.043 0.681 0.118 1.364 0.236 2.037 0.010 0.055 0.274 1.56 0.526 1.209 0.144-0.199-0.271-1.561-0.302-1.788-0.176-1.277-0.217-2.564-0.208-3.85 0.014-2.118-0.054-4.225 0.181-6.335 0.035-0.315 0.063-0.646 0.144-0.954 0.087-0.328-0.024-0.185 0.259-0.314 0.275-0.126 0.615-0.108 0.9-0.266 1.131-0.628 1.71-2.24 2.16-3.298 0.515-1.21 0.828-2.499 1.078-3.772 0.184-0.935 0.315-1.865 0.389-2.812 0.023-0.299 0.025-0.611 0.089-0.904 0.017-0.079 0.104-0.219 0.101-0.289-0.007-0.148-0.105-0.236-0.113-0.36-0.085 0.070-0.168 0.141-0.25 0.215z"></path>
<path d="M2.919 26.141c0 3.192 2.828 5.78 6.317 5.78s6.317-2.588 6.317-5.78z"></path>
<path d="M13.565 21.081c1.563-0.105 3.309 1.049 4.063 2.25 0.608 0.968 0.506 2.24 0.13 3.268-0.251 0.689-0.8 1.671-1.715 1.68-1.145 0.012-1.2-1.283-1.222-2.040-0.029-1.006-0.168-1.883-1.035-2.569-0.107-0.085-0.219-0.164-0.332-0.243-0.1-0.070-0.199-0.141-0.295-0.215-0.015-0.012-0.031-0.024-0.046-0.036-0.306-0.236-0.628-0.483-0.668-0.872-0.057-0.563 0.29-0.664 0.821-0.56 0.017 0.003 0.064 0.019 0.127 0.041 0.271 0.094 0.849 0.294 0.739 0.055-0.041-0.090-0.191-0.162-0.381-0.215-0.491-0.049-1.077-0.106-1.245-0.072-1.817 0.365-2.524 2.667-2.712 4.13-0.020 0.158-0.037 0.316-0.051 0.475h-0.334c0.023-0.383 0.054-0.766 0.124-1.145 0.268-1.449 1.105-3.578 2.941-3.813 0.068-0.009 0.317-0.010 0.619 0.006 0.143-0.073 0.303-0.117 0.472-0.128z"></path>
</symbol>
<symbol id="icon-plant-left" viewBox="0 0 19 32">
<path d="M11.738 6.717c0.277-0.361 0.79-1.278 1.18-1.407 0.251-0.083 0.178 0.777 0.181 0.94 0.012 0.634-0.055 1.264-0.139 1.893-0.15 1.134-0.641 2.144-1.314 3.109-0.346 0.497-0.753 0.999-1.316 1.309-0.259 0.143-0.571 0.167-0.827 0.29-0.298 0.143-0.136 0.027-0.27 0.312-0.186 0.394-0.246 0.903-0.332 1.324-0.396 1.932-1.355 12.146-1.189 14.111 0.015 0.174-0.251 0.216-0.264 0.003-0.070-1.127 0.539-8.936 0.847-11.489s0.619-4.81 0.931-5.693c0.379-1.072 1.062-2.361 1.631-3.36 0.264-0.464 0.553-0.913 0.881-1.342z"></path>
<path d="M13.792 19.242c0.72-0.484 1.5 0.429 0.848 0.913-0.36 0.267-0.737 0.172-0.949-0.051-0.138 0.154-0.266 0.314-0.39 0.45-0.377 0.413-0.734 0.836-1.074 1.269-0.708 0.899-1.314 1.849-1.948 2.782-0.626 0.921-1.247 1.846-1.814 2.79-0.481 0.8-1.121 1.74-1.286 2.617 0.25-1.859 1.197-3.646 2.325-5.285 1.119-1.626 2.403-3.401 4.135-4.684-0.176-0.237-0.181-0.576 0.154-0.801z"></path>
<path d="M0.126 14.707c0.403 0.072 1.062 0.906 1.394 1.224 0.395 0.378 0.753 0.78 1.091 1.202 0.727 0.908 1.377 1.873 1.93 2.88 0.901 1.641 1.623 3.326 2.147 5.112 0.321 1.094 0.528 2.228 0.651 3.353 0.023 0.212 0.267 1.849-0.084 1.893-0.315 0.040-0.218-1.243-0.233-1.417-0.172-1.968-0.687-3.884-1.404-5.739-0.156-0.404-0.301-0.899-0.551-1.263-0.18-0.262-0.001-0.171-0.317-0.27-0.271-0.085-0.58-0.064-0.858-0.169-0.603-0.226-1.086-0.666-1.51-1.108-0.823-0.859-1.475-1.788-1.815-2.889-0.189-0.61-0.362-1.224-0.458-1.854-0.025-0.163-0.243-1.003 0.017-0.956z"></path>
<path d="M1.716 0.828c1.518 2.409 2.766 5.055 3.571 7.735 0.488 1.624 0.829 3.29 1.168 4.944 0.525 2.561 1.022 5.123 1.163 7.73 0.142 2.622 0.423 5.646-0.515 8.172 0.469-2.564 0.022-5.293-0.057-7.873-0.038-1.232-0.147-2.451-0.291-3.676-0.139-1.188-0.367-2.37-0.579-3.548-0.103-0.574-0.212-1.147-0.322-1.72-0.033-0.171-0.047-0.678-0.165-0.795s-0.728-0.165-0.919-0.252c-0.385-0.174-0.746-0.42-1.067-0.681-0.614-0.5-1.148-1.152-1.569-1.796-0.975-1.489-1.365-3.306-1.345-5.030 0.004-0.335 0.592-3.94 0.356-3.99 0.014-0.015 0.028-0.031 0.040-0.047 0.179 0.274 0.355 0.55 0.529 0.827z"></path>
<path d="M18.102 9.516c0.023-0.031 0.176-0.246 0.099-0.232 0.156-0.028-0.215 0.237 0.174 0.074-0.185 0.16-0.078 0.367-0.076 0.582 0.004 0.349-0.060 0.695-0.132 1.037-0.114 0.54-0.283 1.065-0.528 1.568-0.535 1.095-1.444 2.149-2.523 2.833-0.533 0.338-1.055 0.453-1.662 0.608-0.384 0.098-0.414 0.28-0.618 0.621-0.424 0.71-0.841 1.417-1.215 2.15-0.447 0.876-0.88 1.753-1.289 2.644-1.378 3.003-2.499 6.113-3.088 9.332-0.014-1.897 0.465-3.851 1.070-5.659 0.441-1.317 1.014-2.587 1.626-3.844 0.148-0.305 0.373-0.696 0.436-1.033 0.044-0.236-0.091-0.462-0.152-0.71-0.241-0.966-0.223-2.049-0.012-3.021 0.233-1.071 0.907-1.569 2.047-1.72 0.417-0.056 0.947-0.035 1.329-0.198 0.416-0.177 0.588-0.759 0.825-1.133 0.636-1.004 1.392-1.966 2.259-2.812 0.24-0.234 0.499-0.45 0.773-0.65 0.173-0.126 0.538-0.282 0.656-0.438z"></path>
<path d="M4.995 29.031c-0.029-0.182 0.125-0.345 0.326-0.345h4.045c0.201 0 0.355 0.163 0.326 0.345l-0.313 1.94c-0.095 0.591-0.65 1.029-1.303 1.029h-1.465c-0.653 0-1.208-0.438-1.303-1.029l-0.313-1.94z"></path>
</symbol>
<symbol id="icon-maceta" viewBox="0 0 31 32">
<path d="M6.844 18.064c0 7.697 0.664 13.936 9.574 13.936s9.574-6.239 9.574-13.936z"></path>
<path d="M19.069 13.262c-0.327 0.517-0.618 1.044-0.875 1.579-0.009-1.102 0.058-2.211 0.239-3.336 0.311-1.927 0.785-3.844 1.231-5.758 0.321-1.375 0.3-3.846 1.517-4.942 0.334-0.237 0.414 0.228 0.414 0.43 0.004 0.043-0.001-0.823-0.325-0.672-1.925 0.909-2.548 3.769-3.165 5.201-0.899 2.090-1.664 4.227-1.979 6.401-0.080 0.549-0.123 1.098-0.133 1.647-0.066-0.146-0.127-0.294-0.195-0.44-1.111-2.384-2.61-4.71-4.48-6.855-0.46-0.528-6.247-5.736-6.7-4.939 0.045 0.116 0.138 0.212 0.281 0.288 0.008 0.009 0.009 0.004 0.004-0.009 0.34 0.503 1.306 1.278 1.607 1.719 0.758 1.107 1.346 2.283 1.945 3.436 1.264 2.437 2.437 4.898 3.573 7.364 0.265 0.575 0.541 1.146 0.822 1.715-2.901-3.829-6.772-7.305-12.1-9.295 1.82 0.847 3.013 2.441 4.242 3.661 1.482 1.472 3.043 2.904 4.528 4.374 1.752 1.734 3.812 3.561 5.497 5.48 1.632 3.135 3.218 6.273 4.197 9.568-0.401-1.138-0.031-2.712-0.1-3.906-0.055-0.951-0.176-1.895-0.342-2.836 0.206 0.425 0.383 0.85 0.463 1.245-0.073-0.663-0.158-1.322-0.249-1.977 0.233-0.614 0.462-1.186 0.616-1.658 0.792-2.419 1.735-4.797 3.020-7.114 1.189-2.144 2.552-4.26 4.038-6.312 0.693-0.957 1.396-1.91 2.094-2.865 0.457-0.625 0.892-1.626 1.528-2.225-4.113 3.44-8.606 6.905-11.215 11.033z"></path>
</symbol>
<symbol id="icon-logo" viewBox="0 0 40 32">
<path d="M16.463 31.448v-5.12l-0.132-0.839v-8.563c0-1.971-0.559-3.487-1.677-4.546-1.089-1.059-2.722-1.589-4.899-1.589-1.501 0-2.928 0.25-4.281 0.75s-2.501 1.162-3.443 1.986l-1.412-2.339c1.177-1 2.589-1.766 4.237-2.295 1.648-0.559 3.384-0.839 5.208-0.839 3.001 0 5.311 0.75 6.93 2.251 1.648 1.471 2.472 3.722 2.472 6.753v14.389h-3.001zM8.474 31.669c-1.736 0-3.252-0.28-4.546-0.839-1.265-0.589-2.236-1.383-2.913-2.383-0.677-1.030-1.015-2.207-1.015-3.531 0-1.206 0.28-2.295 0.839-3.266 0.589-1 1.53-1.795 2.825-2.383 1.324-0.618 3.090-0.927 5.297-0.927h7.989v2.339h-7.901c-2.236 0-3.796 0.397-4.679 1.192-0.853 0.794-1.28 1.78-1.28 2.957 0 1.324 0.515 2.383 1.545 3.178s2.472 1.192 4.326 1.192c1.766 0 3.281-0.397 4.546-1.192 1.295-0.824 2.236-2.001 2.825-3.531l0.706 2.163c-0.589 1.53-1.618 2.751-3.090 3.663-1.442 0.912-3.266 1.368-5.473 1.368z"></path>
<path d="M29.44 31.669c-2.413 0-4.531-0.5-6.356-1.501-1.824-1.030-3.251-2.428-4.281-4.193-1.030-1.795-1.545-3.84-1.545-6.135s0.486-4.326 1.457-6.091c1-1.766 2.354-3.149 4.061-4.149 1.736-1.030 3.678-1.545 5.826-1.545 2.178 0 4.105 0.5 5.782 1.501 1.707 0.971 3.046 2.354 4.017 4.149 0.971 1.766 1.457 3.811 1.457 6.135 0 0.147-0.015 0.309-0.044 0.486 0 0.147 0 0.309 0 0.486h-20.171v-2.339h18.494l-1.236 0.927c0-1.677-0.368-3.163-1.103-4.458-0.706-1.324-1.677-2.354-2.913-3.090s-2.663-1.103-4.281-1.103c-1.589 0-3.016 0.368-4.281 1.103s-2.251 1.766-2.957 3.090c-0.706 1.324-1.059 2.84-1.059 4.546v0.486c0 1.766 0.383 3.325 1.148 4.679 0.794 1.324 1.883 2.369 3.266 3.134 1.412 0.736 3.016 1.103 4.811 1.103 1.412 0 2.722-0.25 3.928-0.75 1.236-0.5 2.295-1.265 3.178-2.295l1.766 2.030c-1.030 1.236-2.325 2.177-3.884 2.825-1.53 0.647-3.222 0.971-5.076 0.971z"></path>
<path d="M37.296 3.31h-15.448v-3.31h15.448v3.31z"></path>
</symbol>
<symbol id="icon-leaf-top" viewBox="0 0 24 32">
<path d="M22.772 5.816c-0.441-0.306-1.126-0.11-1.571 0.070-0.171 0.070-0.609 0.292-0.934 0.543 0.043-0.174 0.081-0.349 0.115-0.525 0.138-0.726 0.233-1.466 0.279-2.202 0.012-0.192-0.004-0.406-0.019-0.623v-0c-0.005-0.074-0.011-0.147-0.015-0.221 0.018-0.017 0.030-0.041 0.035-0.074 0.002 0.013 0.003 0.024 0.004 0.033 0.001 0.013 0.002 0.020 0.004 0.021s0.006-0.005 0.015-0.017c0.003-0.004 0.007-0.010 0.012-0.016 0.329-0.445 0.605-0.947 0.643-1.499 0.032-0.468-0.391-1.352-0.992-0.74-0.269 0.274-0.2 2.195 0.203 2.313-0.108 0.637-0.244 1.272-0.414 1.9-0.025-0.004-0.051-0.004-0.077-0.001 0.002-0.156 0.003-0.326-0.004-0.385-0.060-0.504-0.524-1.528-1.264-1.329-0.569 0.153-0.221 0.782-0.027 1.057 0.311 0.443 0.663 0.635 1.109 0.865 0.009 0.095 0.077 0.151 0.157 0.169-0.299 1.014-0.692 2.002-1.206 2.936l-0.014-0.059c-0.065-0.283-0.141-0.614-0.189-0.683-0.251-0.363-0.808-0.806-1.322-0.591-1.080 0.452 0.091 1.751 1.010 1.892 0.038 0.048 0.078 0.086 0.122 0.108-0.179 0.282-0.37 0.558-0.574 0.827-0.306 0.405-0.636 0.808-0.981 1.209-0.010-0.313-0.147-1.012-0.185-1.087-0.235-0.456-0.914-0.924-1.465-0.6-0.62 0.365-0.058 1.055 0.295 1.367 0.145 0.128 0.861 0.597 1.114 0.599-0.834 0.945-1.755 1.875-2.69 2.77 0.078-0.401 0.18-1.505 0.168-1.627-0.058-0.632-0.516-1.643-1.418-1.397-0.876 0.239-0.489 1.289-0.19 1.79 0.181 0.303 0.432 0.611 0.735 0.822 0.055 0.038 0.126 0.069 0.197 0.1 0.086 0.037 0.171 0.075 0.227 0.124 0.050 0.044 0.065 0.095 0.080 0.145 0.016 0.053 0.032 0.105 0.088 0.149-0.506 0.482-1.015 0.954-1.517 1.413-0.237 0.216-0.478 0.429-0.722 0.638-0.133-0.050-0.323 0.016-0.313 0.187 0.001 0.025 0.008 0.046 0.016 0.066-0.184 0.156-0.37 0.31-0.557 0.463 0.004-0.045 0.003-0.107-0.005-0.194 0.135 0.174 0.129-0.079 0.125-0.272-0.001-0.068-0.003-0.129 0.002-0.16 0.020-0.124 0.046-0.247 0.071-0.369 0.055-0.262 0.109-0.523 0.107-0.793-0.006-0.573-0.405-1.535-1.249-1.193-0.775 0.314-0.494 1.164-0.202 1.697 0.185 0.337 0.438 0.638 0.703 0.926 0.047 0.051 0.1 0.121 0.151 0.19 0.077 0.102 0.153 0.203 0.209 0.241-0.72 0.585-1.457 1.153-2.194 1.722l-0 0c-0.33 0.255-0.66 0.509-0.989 0.765-0.014-0.056-0.026-0.112-0.036-0.164 0.021 0.021 0.048 0.031 0.084 0.029 0.010-0.043 0.023-0.1 0.040-0.169 0.203-0.839 0.823-3.394-0.851-2.898-1.226 0.364-0.362 2.589 0.552 3.367-0.555 0.435-1.105 0.875-1.642 1.329-0.389 0.328-0.766 0.667-1.128 1.018 0.188-0.454 0.365-1.041 0.249-1.509-0.168-0.68-0.96-1.322-1.732-0.935-0.964 0.485-0.223 1.147 0.472 1.767 0.355 0.317 0.697 0.623 0.795 0.889-1.153 1.15-2.138 2.428-2.796 3.883-0.716 1.582-1.381 3.709-1.015 5.479-0.067-0.778 0.223-1.756 0.427-2.442 0.028-0.093 0.054-0.181 0.077-0.263 0.306-1.065 0.742-2.1 1.315-3.070 0.918-1.553 2.13-2.872 3.53-4.069 0.318 0.101 0.664 0.287 0.951 0.441 0.176 0.095 0.329 0.177 0.44 0.221 0.535 0.209 1.562 0.509 1.904-0.151 0.336-0.649-0.52-1.011-1.050-1.157-0.512-0.14-0.974-0.123-1.453-0.008 0.741-0.596 1.5-1.173 2.258-1.75 0.14-0.106 0.279-0.212 0.418-0.318 0.193 0.143 0.406 0.35 0.631 0.57 0.717 0.698 1.566 1.525 2.326 0.849 1.146-1.021-1.044-2.057-1.978-1.975-0.115 0.010-0.226 0.032-0.334 0.062 0.952-0.734 1.89-1.482 2.777-2.283 0.159 0.026 0.412 0.238 0.716 0.493h0c0.683 0.573 1.624 1.362 2.333 0.74 0.512-0.449 0.337-1.147-0.157-1.546-0.496-0.401-1.216-0.4-1.828-0.264-0.264 0.058-0.509 0.169-0.736 0.304-0.010 0.001-0.019 0.001-0.028 0.001 0.873-0.797 1.75-1.611 2.596-2.454 0.015 0.004 0.030 0.009 0.045 0.013 0.051 0.057 0.137 0.078 0.215 0.065 0.043 0.013 0.087 0.027 0.131 0.041l0.001 0c0.669 0.209 1.53 0.478 2.197 0.362 0.491-0.086 0.937-0.448 0.521-0.894-0.338-0.362-1.255-0.31-1.702-0.224-0.218 0.042-0.456 0.164-0.694 0.286-0.1 0.051-0.2 0.103-0.3 0.148-0.026-0.047-0.070-0.077-0.121-0.092 0.835-0.847 1.632-1.722 2.355-2.636 0.218 0.031 0.461 0.118 0.711 0.207 0.602 0.216 1.247 0.448 1.711-0.052 0.685-0.738-0.602-1.169-1.214-1.098-0.207 0.024-0.41 0.077-0.607 0.147 0.526-0.752 0.928-1.556 1.21-2.401 0.003 0.001 0.005 0.003 0.008 0.004 0.004 0.002 0.008 0.004 0.013 0.006-0.004-0.002-0.008-0.004-0.012-0.006s-0.006-0.003-0.009-0.005c0.028-0.084 0.055-0.169 0.081-0.255 0.048-0.024 0.092-0.042 0.114-0.049-0.278 0.174 0.895 0.259 1.114 0.274 0.486 0.035 1.136 0.048 1.492-0.313 0.299-0.303 0.282-0.751-0.084-1.005zM0.387 31.29c0.021 0.236 0.085 0.452 0.211 0.629-0.092-0.202-0.161-0.412-0.211-0.629z"></path>
</symbol>
<symbol id="icon-leaf-bottom" viewBox="0 0 23 32">
<path d="M0.526 5.617c0.437-0.306 1.116-0.111 1.556 0.070 0.17 0.070 0.603 0.292 0.925 0.543-0.042-0.174-0.080-0.349-0.114-0.526-0.136-0.726-0.23-1.467-0.275-2.203-0.012-0.192 0.004-0.406 0.019-0.624v-0c0.005-0.074 0.010-0.147 0.015-0.221-0.018-0.017-0.030-0.041-0.035-0.074-0.002 0.014-0.003 0.024-0.004 0.033-0.001 0.013-0.002 0.020-0.004 0.021s-0.006-0.005-0.015-0.017c-0.003-0.004-0.007-0.010-0.011-0.016-0.325-0.445-0.599-0.947-0.636-1.499-0.032-0.468 0.388-1.353 0.984-0.74 0.266 0.274 0.197 2.196-0.203 2.314 0.107 0.637 0.241 1.273 0.41 1.901 0.025-0.004 0.051-0.004 0.076-0.001-0.002-0.156-0.003-0.326 0.004-0.385 0.060-0.505 0.52-1.529 1.253-1.33 0.563 0.153 0.218 0.782 0.026 1.057-0.308 0.443-0.657 0.635-1.099 0.866-0.009 0.095-0.076 0.151-0.155 0.169 0.296 1.014 0.685 2.003 1.194 2.937l0.013-0.059c0.065-0.284 0.14-0.614 0.188-0.683 0.249-0.363 0.801-0.807 1.311-0.592 1.069 0.452-0.091 1.752-1.002 1.893-0.038 0.048-0.078 0.086-0.121 0.108 0.177 0.282 0.366 0.558 0.568 0.827 0.303 0.405 0.629 0.808 0.971 1.209 0.011-0.314 0.146-1.013 0.184-1.088 0.233-0.456 0.906-0.925 1.452-0.601 0.614 0.365 0.057 1.056-0.293 1.368-0.144 0.128-0.853 0.597-1.104 0.6 0.826 0.945 1.737 1.875 2.664 2.77-0.077-0.401-0.177-1.505-0.166-1.628 0.057-0.633 0.512-1.644 1.406-1.398 0.868 0.239 0.484 1.29 0.187 1.791-0.18 0.303-0.429 0.611-0.729 0.823-0.054 0.038-0.125 0.069-0.195 0.1-0.085 0.037-0.17 0.075-0.225 0.124-0.049 0.044-0.065 0.095-0.080 0.145-0.016 0.053-0.032 0.105-0.087 0.149 0.501 0.482 1.005 0.954 1.502 1.412 0.235 0.216 0.473 0.429 0.715 0.638 0.132-0.050 0.32 0.016 0.31 0.187-0.001 0.025-0.008 0.046-0.016 0.066 0.183 0.156 0.367 0.31 0.552 0.463-0.004-0.045-0.003-0.107 0.006-0.194-0.133 0.174-0.128-0.079-0.124-0.272 0.002-0.068 0.003-0.129-0.002-0.161-0.020-0.124-0.045-0.247-0.070-0.37-0.054-0.262-0.108-0.523-0.105-0.793 0.006-0.574 0.403-1.536 1.238-1.194 0.768 0.313 0.489 1.164 0.199 1.697-0.184 0.337-0.434 0.639-0.697 0.927-0.047 0.051-0.099 0.121-0.15 0.19-0.076 0.102-0.151 0.203-0.207 0.241 0.713 0.585 1.443 1.153 2.173 1.721l0 0c0.327 0.254 0.654 0.509 0.979 0.765 0.014-0.056 0.026-0.112 0.036-0.164-0.020 0.021-0.048 0.031-0.084 0.029-0.009-0.043-0.023-0.1-0.040-0.169-0.201-0.839-0.813-3.395 0.844-2.9 1.214 0.364 0.357 2.59-0.549 3.368 0.55 0.435 1.094 0.875 1.626 1.328 0.385 0.328 0.758 0.667 1.117 1.018-0.186-0.454-0.361-1.042-0.246-1.509 0.167-0.681 0.951-1.323 1.717-0.936 0.954 0.485 0.22 1.147-0.468 1.768-0.352 0.317-0.691 0.623-0.788 0.89 1.142 1.15 2.117 2.428 2.768 3.883 0.708 1.583 1.366 3.71 1.002 5.48 0.067-0.779-0.22-1.756-0.422-2.443-0.027-0.093-0.053-0.181-0.077-0.263-0.303-1.065-0.733-2.101-1.301-3.071-0.909-1.553-2.109-2.872-3.495-4.069-0.316 0.101-0.658 0.287-0.942 0.442-0.174 0.095-0.326 0.177-0.436 0.221-0.53 0.21-1.548 0.51-1.886-0.15-0.332-0.649 0.516-1.012 1.041-1.157 0.508-0.14 0.965-0.123 1.439-0.008-0.733-0.596-1.485-1.173-2.236-1.749l-0-0c-0.138-0.106-0.276-0.212-0.414-0.318-0.191 0.143-0.402 0.351-0.626 0.571-0.711 0.699-1.553 1.526-2.305 0.85-1.135-1.021 1.036-2.058 1.96-1.977 0.114 0.010 0.223 0.032 0.33 0.062-0.943-0.733-1.872-1.482-2.75-2.283-0.158 0.026-0.408 0.239-0.71 0.494-0.677 0.573-1.61 1.363-2.312 0.741-0.507-0.449-0.333-1.148 0.157-1.547 0.492-0.401 1.205-0.401 1.812-0.265 0.262 0.058 0.504 0.169 0.729 0.304 0.010 0 0.019 0.001 0.028 0.001-0.864-0.797-1.733-1.611-2.571-2.454-0.015 0.004-0.030 0.009-0.045 0.013-0.051 0.057-0.135 0.078-0.213 0.065-0.043 0.014-0.087 0.027-0.131 0.041-0.663 0.21-1.516 0.479-2.177 0.363-0.487-0.086-0.928-0.448-0.516-0.894 0.335-0.363 1.243-0.311 1.686-0.225 0.216 0.042 0.452 0.164 0.688 0.286 0.099 0.051 0.199 0.103 0.297 0.148 0.025-0.047 0.070-0.077 0.121-0.092-0.827-0.847-1.616-1.722-2.331-2.636-0.217 0.031-0.457 0.118-0.705 0.208-0.596 0.216-1.236 0.449-1.695-0.052-0.678-0.738 0.597-1.169 1.203-1.099 0.205 0.024 0.407 0.077 0.601 0.147-0.521-0.752-0.919-1.557-1.198-2.401-0.003 0.001-0.005 0.003-0.008 0.004v0c-0.004 0.002-0.008 0.004-0.013 0.006 0.004-0.002 0.008-0.004 0.012-0.006s0.005-0.003 0.008-0.005c-0.028-0.084-0.055-0.169-0.080-0.255-0.047-0.024-0.092-0.042-0.113-0.049 0.275 0.174-0.886 0.259-1.104 0.275-0.481 0.035-1.125 0.048-1.478-0.313-0.296-0.303-0.279-0.751 0.084-1.005zM22.671 31.164c-0.020 0.256-0.071 0.492-0.165 0.685 0.071-0.221 0.125-0.45 0.165-0.685z"></path>
</symbol>
<symbol id="icon-instagram" viewBox="0 0 32 32">
<path stroke-linejoin="round" stroke-linecap="round" stroke-miterlimit="4" stroke-width="2.2857" d="M22.667 2.667h-13.333c-3.682 0-6.667 2.985-6.667 6.667v13.333c0 3.682 2.985 6.667 6.667 6.667h13.333c3.682 0 6.667-2.985 6.667-6.667v-13.333c0-3.682-2.985-6.667-6.667-6.667z"></path>
<path stroke-linejoin="round" stroke-linecap="round" stroke-miterlimit="4" stroke-width="2.2857" d="M21.333 15.16c0.164 1.11-0.025 2.243-0.542 3.239s-1.334 1.803-2.336 2.308c-1.002 0.504-2.137 0.68-3.245 0.502s-2.131-0.701-2.924-1.494c-0.793-0.793-1.316-1.816-1.494-2.924s-0.003-2.243 0.502-3.245c0.504-1.002 1.312-1.819 2.307-2.336s2.129-0.706 3.239-0.542c1.132 0.168 2.18 0.695 2.989 1.504s1.337 1.857 1.504 2.989z"></path>
<path stroke-linejoin="round" stroke-linecap="round" stroke-miterlimit="4" stroke-width="2.2857" d="M23.333 8.667h0.013"></path>
</symbol>
<symbol id="icon-facebook" viewBox="0 0 32 32">
<path stroke-linejoin="round" stroke-linecap="round" stroke-miterlimit="4" stroke-width="2.2857" d="M24 2.667h-4c-1.768 0-3.464 0.702-4.714 1.953s-1.953 2.946-1.953 4.714v4h-4v5.333h4v10.667h5.333v-10.667h4l1.333-5.333h-5.333v-4c0-0.354 0.14-0.693 0.39-0.943s0.589-0.391 0.943-0.391h4v-5.333z"></path>
</symbol>
<symbol id="icon-burger" viewBox="0 0 32 32">
<path d="M4 5.333h24v2.667h-24v-2.667zM12 14.667h16v2.667h-16v-2.667zM4 24h24v2.667h-24v-2.667z"></path>
</symbol>
<symbol id="icon-background-shape-2" viewBox="0 0 89 32">
<path d="M89.022 20.036c1.297 8.877-30.157 14.666-57.229 10.626s-39.492-19.819-26.574-28.227c12.919-8.408 82.506 8.725 83.803 17.601z"></path>
</symbol>
<symbol id="icon-arrow-1" viewBox="0 0 47 32">
<path d="M46.984 3.049c0.11-0.478-0.188-0.956-0.666-1.066l-7.795-1.8c-0.478-0.11-0.956 0.188-1.066 0.666s0.188 0.956 0.666 1.066l6.929 1.6-1.6 6.929c-0.111 0.478 0.188 0.956 0.666 1.066s0.956-0.188 1.066-0.666l1.8-7.795zM1.36 31.865l45.229-28.262-0.942-1.508-45.229 28.262 0.942 1.508z"></path>
</symbol>
<symbol id="icon-akar-icons_cross" viewBox="0 0 32 32">
<path stroke-linejoin="miter" stroke-linecap="round" stroke-miterlimit="4" stroke-width="2.6667" d="M26.667 5.333l-21.333 21.333M26.667 26.667v0z"></path>
</symbol>
</defs>
</svg>
